<svg xmlns="http://www.w3.org/2000/svg" xmlns:xlink="http://www.w3.org/1999/xlink" width="800" zoomAndPan="magnify" viewBox="0 0 600 179.999997" height="240" preserveAspectRatio="xMidYMid meet" version="1.0"><defs><g/><clipPath id="0d4d75e514"><path d="M 0.359375 0.640625 L 110 0.640625 L 110 115 L 0.359375 115 Z M 0.359375 0.640625 " clip-rule="nonzero"/></clipPath><clipPath id="e64092a663"><path d="M 63 131 L 107 131 L 107 175.359375 L 63 175.359375 Z M 63 131 " clip-rule="nonzero"/></clipPath><clipPath id="f1668ba9b7"><path d="M 74.039062 142.707031 L 96.375 142.707031 L 96.375 165.042969 L 74.039062 165.042969 Z M 74.039062 142.707031 " clip-rule="nonzero"/></clipPath><clipPath id="4467bb5bfa"><path d="M 85.207031 142.707031 C 79.039062 142.707031 74.039062 147.707031 74.039062 153.875 C 74.039062 160.042969 79.039062 165.042969 85.207031 165.042969 C 91.375 165.042969 96.375 160.042969 96.375 153.875 C 96.375 147.707031 91.375 142.707031 85.207031 142.707031 Z M 85.207031 142.707031 " clip-rule="nonzero"/></clipPath><clipPath id="8de7499eca"><path d="M 0.0390625 0.707031 L 22.375 0.707031 L 22.375 23.042969 L 0.0390625 23.042969 Z M 0.0390625 0.707031 " clip-rule="nonzero"/></clipPath><clipPath id="bf423a916e"><path d="M 11.207031 0.707031 C 5.039062 0.707031 0.0390625 5.707031 0.0390625 11.875 C 0.0390625 18.042969 5.039062 23.042969 11.207031 23.042969 C 17.375 23.042969 22.375 18.042969 22.375 11.875 C 22.375 5.707031 17.375 0.707031 11.207031 0.707031 Z M 11.207031 0.707031 " clip-rule="nonzero"/></clipPath><clipPath id="06972d5626"><rect x="0" width="23" y="0" height="24"/></clipPath><clipPath id="f58d0ecac2"><path d="M 141.210938 72.789062 L 207.988281 72.789062 L 207.988281 131.132812 L 141.210938 131.132812 Z M 141.210938 72.789062 " clip-rule="nonzero"/></clipPath><clipPath id="6e9d7b56b8"><path d="M 174.550781 72.789062 L 207.890625 131.132812 L 141.210938 131.132812 Z M 174.550781 72.789062 " clip-rule="nonzero"/></clipPath><clipPath id="587486bf0a"><path d="M 0.210938 0.789062 L 66.960938 0.789062 L 66.960938 59.132812 L 0.210938 59.132812 Z M 0.210938 0.789062 " clip-rule="nonzero"/></clipPath><clipPath id="8a42d5ffff"><path d="M 33.550781 0.789062 L 66.890625 59.132812 L 0.210938 59.132812 Z M 33.550781 0.789062 " clip-rule="nonzero"/></clipPath><clipPath id="6b6cffe5c4"><rect x="0" width="67" y="0" height="60"/></clipPath><clipPath id="e227f0511b"><path d="M 160.402344 91.757812 L 187.242188 91.757812 L 187.242188 115.210938 L 160.402344 115.210938 Z M 160.402344 91.757812 " clip-rule="nonzero"/></clipPath><clipPath id="68e32c614d"><path d="M 173.800781 91.757812 L 187.203125 115.210938 L 160.402344 115.210938 Z M 173.800781 91.757812 " clip-rule="nonzero"/></clipPath><clipPath id="2da3417c00"><path d="M 0.402344 0.757812 L 27.242188 0.757812 L 27.242188 24.210938 L 0.402344 24.210938 Z M 0.402344 0.757812 " clip-rule="nonzero"/></clipPath><clipPath id="024336590e"><path d="M 13.800781 0.757812 L 27.203125 24.210938 L 0.402344 24.210938 Z M 13.800781 0.757812 " clip-rule="nonzero"/></clipPath><clipPath id="51ce2b8edd"><rect x="0" width="28" y="0" height="25"/></clipPath><clipPath id="68780b9054"><rect x="0" width="536" y="0" height="176"/></clipPath></defs><g transform="matrix(1, 0, 0, 1, 33, 2)"><g clip-path="url(#68780b9054)"><g clip-path="url(#0d4d75e514)"><path fill="#2ea5e4" d="M 8.585938 58.917969 L 74.425781 5.558594 C 83.8125 -2 97.550781 -0.625 105.109375 8.765625 C 112.667969 18.152344 111.179688 31.894531 101.789062 39.453125 L 35.953125 92.695312 C 29.199219 98.191406 25.535156 106.203125 25.308594 114.21875 L 5.386719 89.601562 L 5.269531 89.488281 C -2.289062 80.214844 -0.796875 66.472656 8.589844 58.914062 Z M 8.585938 58.917969 " fill-opacity="1" fill-rule="evenodd"/></g><g clip-path="url(#e64092a663)"><path fill="#ffffff" d="M 71.445312 136.546875 C 80.71875 128.992188 94.460938 130.480469 102.015625 139.867188 C 109.574219 149.140625 108.199219 162.882812 98.808594 170.4375 C 89.421875 177.996094 75.683594 176.621094 68.125 167.234375 C 60.566406 157.84375 62.054688 144.105469 71.445312 136.546875 Z M 71.445312 136.546875 " fill-opacity="1" fill-rule="evenodd"/></g><path fill="#2ea5e4" d="M 74.425781 70.480469 C 83.8125 62.808594 97.4375 64.296875 104.996094 73.6875 C 112.667969 82.960938 111.175781 96.703125 101.789062 104.257812 L 67.671875 131.96875 C 60.800781 137.464844 57.25 145.59375 57.363281 153.835938 L 37.101562 128.761719 L 36.984375 128.761719 C 29.425781 119.371094 30.917969 105.632812 40.191406 98.074219 L 40.304688 98.074219 Z M 74.425781 70.480469 " fill-opacity="1" fill-rule="evenodd"/><g clip-path="url(#f1668ba9b7)"><g clip-path="url(#4467bb5bfa)"><g transform="matrix(1, 0, 0, 1, 74, 142)"><g clip-path="url(#06972d5626)"><g clip-path="url(#8de7499eca)"><g clip-path="url(#bf423a916e)"><path fill="#050a30" d="M 0.0390625 0.707031 L 22.375 0.707031 L 22.375 23.042969 L 0.0390625 23.042969 Z M 0.0390625 0.707031 " fill-opacity="1" fill-rule="nonzero"/></g></g></g></g></g></g><g fill="#2ea5e4" fill-opacity="1"><g transform="translate(339.418634, 112.825356)"><g><path d="M 17.734375 0 L 9.0625 0 L 9.0625 -66.640625 L 53.359375 -66.640625 L 53.359375 -58.75 L 17.734375 -58.75 L 17.734375 -35.328125 L 48.703125 -35.328125 L 48.703125 -27.9375 L 17.734375 -27.9375 Z M 17.734375 0 "/></g></g></g><g fill="#2ea5e4" fill-opacity="1"><g transform="translate(388.444571, 112.825356)"><g><path d="M 16.515625 0 L 8.078125 0 L 8.078125 -69.09375 L 16.515625 -69.09375 Z M 16.515625 0 "/></g></g></g><g fill="#2ea5e4" fill-opacity="1"><g transform="translate(405.717451, 112.825356)"><g><path d="M 29.84375 1.421875 C 26.15625 1.421875 22.734375 0.742188 19.578125 -0.609375 C 16.421875 -1.960938 13.664062 -3.847656 11.3125 -6.265625 C 8.96875 -8.691406 7.140625 -11.503906 5.828125 -14.703125 C 4.523438 -17.898438 3.875 -21.328125 3.875 -24.984375 C 3.875 -28.648438 4.523438 -32.070312 5.828125 -35.25 C 7.140625 -38.4375 8.960938 -41.238281 11.296875 -43.65625 C 13.628906 -46.070312 16.367188 -47.96875 19.515625 -49.34375 C 22.671875 -50.71875 26.113281 -51.40625 29.84375 -51.40625 C 33.5625 -51.40625 37.003906 -50.726562 40.171875 -49.375 C 43.347656 -48.019531 46.113281 -46.128906 48.46875 -43.703125 C 50.820312 -41.285156 52.648438 -38.476562 53.953125 -35.28125 C 55.253906 -32.082031 55.90625 -28.648438 55.90625 -24.984375 C 55.90625 -21.328125 55.253906 -17.898438 53.953125 -14.703125 C 52.648438 -11.503906 50.820312 -8.691406 48.46875 -6.265625 C 46.113281 -3.847656 43.347656 -1.960938 40.171875 -0.609375 C 37.003906 0.742188 33.5625 1.421875 29.84375 1.421875 Z M 29.9375 -6.515625 C 32.425781 -6.515625 34.726562 -6.972656 36.84375 -7.890625 C 38.96875 -8.804688 40.832031 -10.097656 42.4375 -11.765625 C 44.039062 -13.429688 45.28125 -15.390625 46.15625 -17.640625 C 47.039062 -19.890625 47.484375 -22.335938 47.484375 -24.984375 C 47.484375 -27.640625 47.039062 -30.082031 46.15625 -32.3125 C 45.28125 -34.550781 44.039062 -36.503906 42.4375 -38.171875 C 40.832031 -39.835938 38.96875 -41.132812 36.84375 -42.0625 C 34.726562 -43 32.425781 -43.46875 29.9375 -43.46875 C 27.457031 -43.46875 25.144531 -43 23 -42.0625 C 20.863281 -41.132812 18.992188 -39.835938 17.390625 -38.171875 C 15.796875 -36.503906 14.546875 -34.550781 13.640625 -32.3125 C 12.742188 -30.082031 12.296875 -27.640625 12.296875 -24.984375 C 12.296875 -22.335938 12.742188 -19.890625 13.640625 -17.640625 C 14.546875 -15.390625 15.796875 -13.429688 17.390625 -11.765625 C 18.992188 -10.097656 20.863281 -8.804688 23 -7.890625 C 25.144531 -6.972656 27.457031 -6.515625 29.9375 -6.515625 Z M 29.9375 -6.515625 "/></g></g></g><g fill="#2ea5e4" fill-opacity="1"><g transform="translate(458.173502, 112.825356)"><g><path d="M 25.578125 0 L 17.84375 0 L 0.640625 -49.984375 L 9.703125 -49.984375 L 21.5625 -13.875 L 22.5 -10.875 L 22.59375 -10.875 L 23.578125 -13.8125 L 34.9375 -49.984375 L 41.40625 -49.984375 L 52.4375 -14.453125 L 53.5625 -10.875 L 53.703125 -10.875 L 55.03125 -14.609375 L 66.640625 -49.984375 L 75.5625 -49.984375 L 58.359375 0 L 50.421875 0 L 38.078125 -37.4375 L 38.03125 -37.4375 Z M 25.578125 0 "/></g></g></g><g fill="#ffffff" fill-opacity="1"><g transform="translate(134.996864, 112.825356)"><g><path d="M 39.546875 1.328125 C 35.628906 1.328125 31.890625 0.75 28.328125 -0.40625 C 24.765625 -1.570312 21.503906 -3.21875 18.546875 -5.34375 C 15.585938 -7.46875 13.015625 -9.972656 10.828125 -12.859375 C 8.640625 -15.753906 6.945312 -18.929688 5.75 -22.390625 C 4.5625 -25.859375 3.96875 -29.519531 3.96875 -33.375 C 3.96875 -37.257812 4.5625 -40.941406 5.75 -44.421875 C 6.945312 -47.898438 8.640625 -51.082031 10.828125 -53.96875 C 13.015625 -56.863281 15.585938 -59.363281 18.546875 -61.46875 C 21.503906 -63.582031 24.765625 -65.21875 28.328125 -66.375 C 31.890625 -67.53125 35.628906 -68.109375 39.546875 -68.109375 C 43.492188 -68.109375 47.25 -67.53125 50.8125 -66.375 C 54.375 -65.21875 57.640625 -63.582031 60.609375 -61.46875 C 63.585938 -59.363281 66.171875 -56.863281 68.359375 -53.96875 C 70.546875 -51.082031 72.234375 -47.898438 73.421875 -44.421875 C 74.617188 -40.941406 75.21875 -37.257812 75.21875 -33.375 C 75.21875 -29.519531 74.617188 -25.859375 73.421875 -22.390625 C 72.234375 -18.929688 70.546875 -15.753906 68.359375 -12.859375 C 66.171875 -9.972656 63.585938 -7.46875 60.609375 -5.34375 C 57.640625 -3.21875 54.375 -1.570312 50.8125 -0.40625 C 47.25 0.75 43.492188 1.328125 39.546875 1.328125 Z M 39.546875 -6.71875 C 43.265625 -6.71875 46.757812 -7.382812 50.03125 -8.71875 C 53.300781 -10.0625 56.175781 -11.941406 58.65625 -14.359375 C 61.132812 -16.773438 63.066406 -19.597656 64.453125 -22.828125 C 65.847656 -26.066406 66.546875 -29.582031 66.546875 -33.375 C 66.546875 -37.164062 65.847656 -40.6875 64.453125 -43.9375 C 63.066406 -47.1875 61.132812 -50.019531 58.65625 -52.4375 C 56.175781 -54.851562 53.300781 -56.738281 50.03125 -58.09375 C 46.757812 -59.445312 43.265625 -60.125 39.546875 -60.125 C 35.816406 -60.125 32.328125 -59.445312 29.078125 -58.09375 C 25.828125 -56.738281 22.96875 -54.851562 20.5 -52.4375 C 18.039062 -50.019531 16.113281 -47.1875 14.71875 -43.9375 C 13.332031 -40.6875 12.640625 -37.164062 12.640625 -33.375 C 12.640625 -29.582031 13.332031 -26.066406 14.71875 -22.828125 C 16.113281 -19.597656 18.039062 -16.773438 20.5 -14.359375 C 22.96875 -11.941406 25.828125 -10.0625 29.078125 -8.71875 C 32.328125 -7.382812 35.816406 -6.71875 39.546875 -6.71875 Z M 39.546875 -6.71875 "/></g></g></g><g fill="#ffffff" fill-opacity="1"><g transform="translate(206.857558, 112.825356)"><g><path d="M 29.40625 1.421875 C 25.78125 1.421875 22.421875 0.738281 19.328125 -0.625 C 16.242188 -2 13.539062 -3.894531 11.21875 -6.3125 C 8.90625 -8.738281 7.101562 -11.539062 5.8125 -14.71875 C 4.519531 -17.90625 3.875 -21.328125 3.875 -24.984375 C 3.875 -28.648438 4.519531 -32.070312 5.8125 -35.25 C 7.101562 -38.4375 8.90625 -41.238281 11.21875 -43.65625 C 13.539062 -46.070312 16.242188 -47.96875 19.328125 -49.34375 C 22.421875 -50.71875 25.78125 -51.40625 29.40625 -51.40625 C 33.382812 -51.40625 36.988281 -50.632812 40.21875 -49.09375 C 43.457031 -47.5625 46.210938 -45.460938 48.484375 -42.796875 C 50.753906 -40.140625 52.378906 -37.078125 53.359375 -33.609375 L 44.6875 -33.609375 C 43.382812 -36.847656 41.367188 -39.300781 38.640625 -40.96875 C 35.910156 -42.632812 32.847656 -43.46875 29.453125 -43.46875 C 27.265625 -43.46875 25.148438 -43.039062 23.109375 -42.1875 C 21.066406 -41.34375 19.226562 -40.117188 17.59375 -38.515625 C 15.957031 -36.910156 14.664062 -34.960938 13.71875 -32.671875 C 12.769531 -30.390625 12.296875 -27.828125 12.296875 -24.984375 C 12.296875 -22.109375 12.773438 -19.523438 13.734375 -17.234375 C 14.703125 -14.953125 16.003906 -13.007812 17.640625 -11.40625 C 19.273438 -9.8125 21.113281 -8.585938 23.15625 -7.734375 C 25.195312 -6.890625 27.296875 -6.46875 29.453125 -6.46875 C 32.816406 -6.46875 35.867188 -7.320312 38.609375 -9.03125 C 41.359375 -10.75 43.382812 -13.328125 44.6875 -16.765625 L 53.3125 -16.765625 C 52.363281 -13.171875 50.757812 -10.007812 48.5 -7.28125 C 46.25 -4.550781 43.488281 -2.414062 40.21875 -0.875 C 36.957031 0.65625 33.351562 1.421875 29.40625 1.421875 Z M 29.40625 1.421875 "/></g></g></g><g fill="#ffffff" fill-opacity="1"><g transform="translate(256.0305, 112.825356)"><g><path d="M 36.609375 0 L 27.390625 0 C 25.492188 0 23.613281 -0.242188 21.75 -0.734375 C 19.894531 -1.222656 18.207031 -2.117188 16.6875 -3.421875 C 15.164062 -4.734375 13.945312 -6.601562 13.03125 -9.03125 C 12.113281 -11.46875 11.65625 -14.628906 11.65625 -18.515625 L 11.65625 -42.578125 L 0.53125 -42.578125 L 0.53125 -49.984375 L 11.65625 -49.984375 L 11.65625 -64.828125 L 20.09375 -64.875 L 20.09375 -49.984375 L 36.609375 -49.984375 L 36.609375 -42.578125 L 20.09375 -42.578125 L 20.09375 -18.125 C 20.09375 -15.8125 20.34375 -13.925781 20.84375 -12.46875 C 21.351562 -11.019531 22.039062 -9.910156 22.90625 -9.140625 C 23.769531 -8.367188 24.734375 -7.84375 25.796875 -7.5625 C 26.859375 -7.289062 27.945312 -7.15625 29.0625 -7.15625 L 36.609375 -7.15625 Z M 36.609375 0 "/></g></g></g><g fill="#ffffff" fill-opacity="1"><g transform="translate(301.667654, 122.296238)"><g><path d="M 39.65625 -45.0625 C 39.820312 -44.664062 39.988281 -44.25 40.15625 -43.8125 C 40.320312 -43.375 40.550781 -42.71875 40.84375 -41.84375 L 2.609375 -25.796875 C 4.242188 -22.859375 6.269531 -20.570312 8.6875 -18.9375 C 11.113281 -17.300781 13.691406 -16.34375 16.421875 -16.0625 C 19.160156 -15.78125 21.800781 -16.171875 24.34375 -17.234375 C 27.445312 -18.535156 29.816406 -20.316406 31.453125 -22.578125 C 33.085938 -24.835938 33.867188 -27.476562 33.796875 -30.5 L 42.53125 -34.15625 C 42.757812 -31.769531 42.597656 -29.382812 42.046875 -27 C 41.503906 -24.613281 40.59375 -22.34375 39.3125 -20.1875 C 38.039062 -18.039062 36.414062 -16.09375 34.4375 -14.34375 C 32.46875 -12.59375 30.171875 -11.164062 27.546875 -10.0625 C 24.203125 -8.664062 20.84375 -7.992188 17.46875 -8.046875 C 14.101562 -8.109375 10.890625 -8.804688 7.828125 -10.140625 C 4.773438 -11.472656 2.046875 -13.363281 -0.359375 -15.8125 C -2.765625 -18.257812 -4.675781 -21.164062 -6.09375 -24.53125 C -7.507812 -27.914062 -8.242188 -31.316406 -8.296875 -34.734375 C -8.359375 -38.160156 -7.796875 -41.4375 -6.609375 -44.5625 C -5.421875 -47.6875 -3.671875 -50.476562 -1.359375 -52.9375 C 0.953125 -55.40625 3.78125 -57.335938 7.125 -58.734375 C 10.4375 -60.128906 13.75 -60.796875 17.0625 -60.734375 C 20.375 -60.671875 23.5 -59.976562 26.4375 -58.65625 C 29.375 -57.332031 31.984375 -55.507812 34.265625 -53.1875 C 36.554688 -50.875 38.351562 -48.164062 39.65625 -45.0625 Z M 0.09375 -32.828125 L 30.140625 -45.4375 C 29.347656 -47.007812 28.222656 -48.359375 26.765625 -49.484375 C 25.316406 -50.617188 23.675781 -51.46875 21.84375 -52.03125 C 20.019531 -52.59375 18.09375 -52.828125 16.0625 -52.734375 C 14.03125 -52.640625 12.035156 -52.179688 10.078125 -51.359375 C 7.785156 -50.398438 5.796875 -49.015625 4.109375 -47.203125 C 2.421875 -45.390625 1.203125 -43.265625 0.453125 -40.828125 C -0.296875 -38.398438 -0.414062 -35.734375 0.09375 -32.828125 Z M 0.09375 -32.828125 "/></g></g></g><g clip-path="url(#f58d0ecac2)"><g clip-path="url(#6e9d7b56b8)"><g transform="matrix(1, 0, 0, 1, 141, 72)"><g clip-path="url(#6b6cffe5c4)"><g clip-path="url(#587486bf0a)"><g clip-path="url(#8a42d5ffff)"><path fill="#050a30" d="M 0.210938 0.789062 L 66.988281 0.789062 L 66.988281 59.132812 L 0.210938 59.132812 Z M 0.210938 0.789062 " fill-opacity="1" fill-rule="nonzero"/></g></g></g></g></g></g><g clip-path="url(#e227f0511b)"><g clip-path="url(#68e32c614d)"><g transform="matrix(1, 0, 0, 1, 160, 91)"><g clip-path="url(#51ce2b8edd)"><g clip-path="url(#2da3417c00)"><g clip-path="url(#024336590e)"><path fill="#2ea5e4" d="M 0.402344 0.757812 L 27.242188 0.757812 L 27.242188 24.210938 L 0.402344 24.210938 Z M 0.402344 0.757812 " fill-opacity="1" fill-rule="nonzero"/></g></g></g></g></g></g></g></g></svg>